HIERARCHY
ROOT Hips
{
  OFFSET 0 0 0
  CHANNELS 6 Xposition Yposition Zposition Zrotation Xrotation Yrotation
  JOINT Spine
  {
    OFFSET 0 10 0
    CHANNELS 3 Zrotation Xrotation Yrotation
    JOINT Neck
    {
      OFFSET 0 15 0
      CHANNELS 3 Zrotation Xrotation Yrotation
      JOINT Head
      {
        OFFSET 0 5 0
        CHANNELS 3 Zrotation Xrotation Yrotation
        End Site
        {
          OFFSET 0 3 0
        }
      }
    }
    JOINT LeftShoulder
    {
      OFFSET 5 12 0
      CHANNELS 3 Zrotation Xrotation Yrotation
      JOINT LeftElbow
      {
        OFFSET 10 0 0
        CHANNELS 3 Zrotation Xrotation Yrotation
        JOINT LeftWrist
        {
          OFFSET 8 0 0
          CHANNELS 3 Zrotation Xrotation Yrotation
          End Site
          {
            OFFSET 4 0 0
          }
        }
      }
    }
    JOINT RightShoulder
    {
      OFFSET -5 12 0
      CHANNELS 3 Zrotation Xrotation Yrotation
      JOINT RightElbow
      {
        OFFSET -10 0 0
        CHANNELS 3 Zrotation Xrotation Yrotation
        JOINT RightWrist
        {
          OFFSET -8 0 0
          CHANNELS 3 Zrotation Xrotation Yrotation
          End Site
          {
            OFFSET -4 0 0
          }
        }
      }
    }
  }
  JOINT LeftHip
  {
    OFFSET 3.5 0 0
    CHANNELS 3 Zrotation Xrotation Yrotation
    JOINT LeftKnee
    {
      OFFSET 0 -15 0
      CHANNELS 3 Zrotation Xrotation Yrotation
      JOINT LeftAnkle
      {
        OFFSET 0 -15 0
        CHANNELS 3 Zrotation Xrotation Yrotation
        End Site
        {
          OFFSET 0 -3 5
        }
      }
    }
  }
  JOINT RightHip
  {
    OFFSET -3.5 0 0
    CHANNELS 3 Zrotation Xrotation Yrotation
    JOINT RightKnee
    {
      OFFSET 0 -15 0
      CHANNELS 3 Zrotation Xrotation Yrotation
      JOINT RightAnkle
      {
        OFFSET 0 -15 0
        CHANNELS 3 Zrotation Xrotation Yrotation
        End Site
        {
          OFFSET 0 -3 5
        }
      }
    }
  }
}
MOTION
Frames: 19
Frame Time: 0.03333333333333333
37.49461472034454 -45.12922912836075 0.014632008969783783 -47.451020948502304 -56.245937594357294 0.0 -0.0 0.0 0.0 -15.191164627709734 37.52530709672759 0.0 -0.0 0.0 0.0 -103.2839344089149 0.0 34.90430591866826 -89.56961305224672 0.0 24.3344924187346 0.0 0.0 0.0 59.94856337686002 0.0 11.77659715384301 42.10031871110236 0.0 90.542400170077 -0.0 0.0 0.0 9.241172236587689 -91.72766976920272 0.0 -17.781361075102552 50.99222356661158 0.0 0.0 -0.0 0.0 -78.21485439717536 -21.570545753257626 -0.0 4.277135931221025 70.00646292218651 0.0 0.0 -0.0 0.0
35.998959839344025 -48.664793372154236 0.007730722427368164 -62.732597739302676 4.022959498443241 0.0 -0.0 0.0 0.0 -11.75815421018696 72.29124205123208 0.0 -0.0 0.0 0.0 -47.37652601656516 0.0 83.88331891629124 -38.405677870012745 0.0 78.3294106716205 0.0 0.0 0.0 30.286207676102443 0.0 46.441397679081255 68.8466830227141 0.0 43.692415097998314 -0.0 0.0 0.0 -36.72392887291656 82.17090526546544 0.0 -46.52552697471172 74.35849846821027 0.0 0.0 -0.0 0.0 -73.51091441522208 8.03026825948344 0.0 -63.6784169558679 76.70147263168606 0.0 0.0 -0.0 0.0
32.25230127573013 -51.05392336845398 0.010158494114875793 -59.953205937576634 -38.567702707837405 0.0 -0.0 0.0 0.0 -23.352656266650914 110.86277826002926 0.0 -0.0 0.0 0.0 -75.5475248452273 0.0 124.53138024701772 -122.79846547443726 0.0 -10.54207803393715 0.0 0.0 0.0 16.52491283952952 0.0 43.06961032988169 86.9617877648964 0.0 11.940959955577531 -0.0 0.0 0.0 -81.44124997533888 22.89155563766117 0.0 -104.0317295806794 46.59705849054005 0.0 0.0 -0.0 0.0 -72.79888300122883 -35.139289923149946 -0.0 -115.29940179788963 37.55123497511447 0.0 0.0 -0.0 0.0
29.022544622421265 -50.57997703552246 0.012740865349769592 -62.1840096949615 -36.654290020884794 0.0 -0.0 0.0 0.0 -26.54641480700457 109.85609139651228 0.0 -0.0 0.0 0.0 -81.75286806705893 0.0 124.82861996089069 -42.008511892561664 0.0 -129.52716681535892 0.0 0.0 0.0 1.8160036708906748 0.0 57.38264072701593 -10.03799946260225 0.0 38.694755439365366 -0.0 0.0 0.0 -94.48207553192387 -20.229691948213627 -0.0 -126.9476112513265 38.51036537540519 0.0 0.0 -0.0 0.0 -67.19926703049869 -60.567365056661146 -0.0 -140.42231988848962 -8.219769196273463 -0.0 0.0 -0.0 0.0
29.151292145252228 -49.58852976560593 0.011565163731575012 -63.07161813633704 -36.0708985870064 0.0 -0.0 0.0 0.0 -29.05092428004788 97.42091985775167 0.0 -0.0 0.0 0.0 -107.8262421915278 0.0 83.75292072503906 -90.90645697529862 0.0 -100.43695026352118 0.0 0.0 0.0 24.30913994261546 0.0 42.7105141716373 68.64421068510303 0.0 44.851085828263 -0.0 0.0 0.0 -90.63426842326194 16.645123510000612 0.0 -144.7304342288637 -9.668879482193756 -0.0 0.0 -0.0 0.0 -78.83747842664167 -40.18778758013357 -0.0 -91.80213344470744 -80.72689215465378 -0.0 0.0 -0.0 0.0
35.14213263988495 -41.03826284408569 0.01796400174498558 -71.60068191436898 -50.97349599220307 0.0 -0.0 0.0 0.0 -56.01172887006492 94.74874158323416 0.0 -0.0 0.0 0.0 -152.07523613116845 0.0 34.6348002722815 -32.067366262501096 0.0 -113.43093499775138 0.0 0.0 0.0 27.67889695762374 0.0 28.38842697024792 -3.526008110392067 0.0 15.984530472244678 -0.0 0.0 0.0 -94.9952961193317 -67.93691793830881 -0.0 -105.3092628286495 -24.302691867899583 -0.0 0.0 -0.0 0.0 -88.08818416727095 -81.98240679089359 -0.0 -101.02016266830421 -56.526507153895174 -0.0 0.0 -0.0 0.0
35.96053719520569 -39.99001234769821 0.017995154485106468 -96.13533172884924 13.804511561923398 0.0 -0.0 0.0 0.0 -42.28517489726691 82.43766111486008 0.0 -0.0 0.0 0.0 -124.56484526479834 0.0 14.812073794960666 7.640450242726306 0.0 -89.41123072963212 0.0 0.0 0.0 6.03746925261075 0.0 6.337439136950864 -31.728165228770415 0.0 34.73049890474636 -0.0 0.0 0.0 -30.48873479758124 135.93031048982726 0.0 -75.92358879501654 81.94024832159633 0.0 0.0 -0.0 0.0 -85.75046540545603 139.79021440114653 0.0 -99.47583199918756 44.318261202948314 0.0 0.0 -0.0 0.0
46.66856229305267 -47.42804020643234 0.011155754327774048 -39.85947010278844 -9.826669550457716 0.0 -0.0 0.0 0.0 -29.305224283982863 85.23942525405955 0.0 -0.0 0.0 0.0 -99.860074328958 0.0 27.278371035682003 -42.1145896350623 0.0 -88.25412400522686 0.0 0.0 0.0 75.07388312070306 0.0 22.535939326435074 81.75813510365174 0.0 -30.730218072544712 -0.0 0.0 0.0 -45.64388449053436 30.807543086064427 0.0 -65.42877434893524 30.579675957026556 0.0 0.0 -0.0 0.0 -13.722441973069946 37.48213555570088 0.0 -57.715705824555556 61.18451577596905 0.0 0.0 -0.0 0.0
46.95710390806198 -47.43664860725403 0.019713304936885834 -39.12898917956966 19.120652919418685 0.0 -0.0 0.0 0.0 -74.20517515210348 63.735588886353014 0.0 -0.0 0.0 0.0 -99.3708892767406 0.0 -31.427308299099103 -50.39148555342038 0.0 -77.13368335219943 0.0 0.0 0.0 68.11961806633839 0.0 25.43909816059504 76.29968290818626 0.0 -5.034899275248266 -0.0 0.0 0.0 -62.07043657009218 -29.219803848397603 -0.0 -43.89361757026244 -44.39811927254263 -0.0 0.0 -0.0 0.0 -19.86014181479905 -31.87086183275601 -0.0 -34.33478136421691 -73.4867267558008 -0.0 0.0 -0.0 0.0
44.809289276599884 -51.90088748931885 0.006418116390705109 -37.493841566696794 75.91570111618049 0.0 -0.0 0.0 0.0 -7.061128481544788 82.98185158533705 0.0 -0.0 0.0 0.0 -12.021810696777907 0.0 93.4528047493084 38.847384907632126 -0.0 68.58864436102714 0.0 0.0 0.0 57.254166871218224 0.0 39.314364010330735 73.52553974974407 0.0 52.08141011716625 -0.0 0.0 0.0 -43.94947206400405 65.85321645463732 0.0 -23.402833177127633 92.80770828351325 0.0 0.0 -0.0 0.0 -62.09996174172654 66.25840529935482 0.0 -16.649785242915403 94.12501411191143 0.0 0.0 -0.0 0.0
46.15450203418732 -51.53442621231079 0.008072331547737122 -32.99719130619715 79.57397531050815 0.0 -0.0 0.0 0.0 -5.581267025977967 109.69678975571182 0.0 -0.0 0.0 0.0 -25.84356795884507 0.0 80.25817355725265 -60.408600068273564 0.0 61.06563131743416 0.0 0.0 0.0 61.04171761158547 0.0 45.534821580840784 78.16051487338345 0.0 19.83325465794708 -0.0 0.0 0.0 -32.728063929549435 84.77804646632073 0.0 -39.20180330261059 94.53540967654729 0.0 0.0 -0.0 0.0 -38.00398927917278 67.82203347498182 0.0 -34.58066254346801 92.41461160505293 0.0 0.0 -0.0 0.0
47.081372141838074 -62.90201246738434 0.009308953303843737 2.1287435765251255 70.99528525484686 -0.0 -0.0 0.0 0.0 -3.376936783860886 70.1547359270996 0.0 -0.0 0.0 0.0 102.59237355638221 0.0 -20.623052294321525 67.28007301192098 0.0 -72.34315217746548 0.0 0.0 0.0 -69.18705308168627 0.0 5.292345684703614 -61.003047855019275 0.0 48.95771879049538 -0.0 0.0 0.0 -6.7074668955874674 78.25126788128108 0.0 -8.806474102101797 80.49965583794764 0.0 0.0 -0.0 0.0 -8.932446953040957 83.4144917475662 0.0 -6.9173193473896015 82.80163646774469 0.0 0.0 -0.0 0.0
48.12768250703812 -67.99183785915375 0.02292916178703308 -73.32298024394886 -72.86914367371772 0.0 -0.0 0.0 0.0 -14.549798385111854 31.59381924538716 0.0 -0.0 0.0 0.0 0.9380750007302452 0.0 -123.15223022190877 36.975414356173374 0.0 -66.44753257450503 0.0 0.0 0.0 -11.648976586180222 0.0 62.36327843585118 -9.08008325229031 0.0 92.70278375466509 -0.0 0.0 0.0 18.638970478081678 -106.80155633233429 0.0 17.524155045419246 -116.18278664057013 0.0 0.0 -0.0 0.0 -83.15133073109946 -71.25014100863224 -0.0 -84.1885916327443 20.83562248626784 0.0 0.0 -0.0 0.0
47.96060919761658 -66.6104108095169 0.019600801169872284 -80.08228289853079 -74.76557478656825 0.0 -0.0 0.0 0.0 -18.81782341917911 37.93536983948496 0.0 -0.0 0.0 0.0 -13.307185293290942 0.0 -125.61977897972571 43.481099244945156 0.0 -75.91441231109091 0.0 0.0 0.0 -22.71236354722547 0.0 61.90252613815957 -2.576895506762976 0.0 89.90643915223973 -0.0 0.0 0.0 34.35098241605418 -117.20001400117883 0.0 26.528827513179447 -125.62544522502284 0.0 0.0 -0.0 0.0 -77.68101228515718 -63.473619927604645 -0.0 -78.53345904360927 -19.723409926248856 -0.0 0.0 -0.0 0.0
47.89271801710129 -65.13219773769379 0.008860323578119278 -100.01063358538097 -58.749043519554924 0.0 -0.0 0.0 0.0 -11.96458278999803 78.11115342796107 0.0 -0.0 0.0 0.0 -84.35246851866538 0.0 -130.8215416897059 26.114015982928866 0.0 -88.49455011332736 0.0 0.0 0.0 -16.92772681168933 0.0 63.64768688987809 60.704804673386874 0.0 61.9327384545366 -0.0 0.0 0.0 -98.91630220697978 -57.8593960271429 -0.0 -87.87357642963545 12.216976043744891 0.0 0.0 -0.0 0.0 -67.72185377471338 -61.79670491434751 -0.0 -78.23138149076924 25.83351365758825 0.0 0.0 -0.0 0.0
47.54786640405655 -66.16746485233307 0.0016454607248306274 -32.28881810049995 94.84399872305207 0.0 -0.0 0.0 0.0 -2.663022298754735 86.38886655019354 0.0 -0.0 0.0 0.0 -17.354462658752233 0.0 125.40347322209854 10.07939630629723 0.0 -100.36036179784334 0.0 0.0 0.0 6.338983231904584 0.0 -51.038696710618815 90.07421923204411 0.0 -36.21021547277844 -0.0 0.0 0.0 -101.2635633917888 -9.471482762521019 -0.0 -7.011453576901467 94.31276644217502 0.0 0.0 -0.0 0.0 -65.44567415640559 -36.22453131618756 -0.0 -18.49922953631768 91.77376007770096 0.0 0.0 -0.0 0.0
46.53673768043518 -63.201647996902466 0.011729449033737183 -120.00896825496172 16.779793121563575 0.0 -0.0 0.0 0.0 -6.502171624027739 97.64910360780144 0.0 -0.0 0.0 0.0 -35.6533124426587 0.0 137.48067513484293 -28.296047624188475 0.0 -95.24209252148347 0.0 0.0 0.0 9.626557008151302 0.0 39.58014382162128 91.642227649932 0.0 42.69024181216996 -0.0 0.0 0.0 -131.07757411092902 -53.786540559421496 -0.0 -54.97089779698491 52.55344620213993 0.0 0.0 -0.0 0.0 -73.44183554876844 -56.82735185535564 -0.0 -49.149992264109365 94.95715121822717 0.0 0.0 -0.0 0.0
47.580158710479736 -64.77168798446655 -0.0012771226465702057 -10.013196707002008 80.8235613895492 0.0 -0.0 0.0 0.0 -140.75052155403586 18.69252894063951 0.0 -0.0 0.0 0.0 22.949693466713533 -0.0 133.89158058210378 -65.4092849882935 0.0 -15.581109531207783 0.0 0.0 0.0 3.280113992768977 0.0 46.849471022186314 -46.27822867692689 0.0 53.26942830739155 -0.0 0.0 0.0 20.641411467051597 -89.98464229339136 0.0 1.031424155253963 -46.353232340302576 0.0 0.0 -0.0 0.0 -63.34992371711486 -81.23100209909208 -0.0 -105.7780757938877 -27.247614458561397 -0.0 0.0 -0.0 0.0
41.486404836177826 -64.10068273544312 0.011384859681129456 -34.17432271198534 79.14241207635087 0.0 -0.0 0.0 0.0 -4.1553272188521655 114.7793972158045 0.0 -0.0 0.0 0.0 21.30085822527071 -0.0 93.4815095950236 -83.77071026822735 0.0 89.16483627118969 0.0 0.0 0.0 38.641215060270646 0.0 37.920790387886626 30.81423942877857 0.0 92.61890006395176 -0.0 0.0 0.0 -56.998031897283596 83.62383020462313 0.0 -38.33856173029039 102.72688770962813 0.0 0.0 -0.0 0.0 -87.02464483260813 69.47937209139656 0.0 -50.54849945263149 91.22147615465173 0.0 0.0 -0.0 0.0
